<?xml version="1.0" standalone="no"?>
<!DOCTYPE svg PUBLIC "-//W3C//DTD SVG 20010904//EN"
 "http://www.w3.org/TR/2001/REC-SVG-20010904/DTD/svg10.dtd">
<svg version="1.0" xmlns="http://www.w3.org/2000/svg"
 width="702.000000pt" height="690.000000pt" viewBox="0 0 702.000000 690.000000"
 preserveAspectRatio="xMidYMid meet">

<g transform="translate(0.000000,690.000000) scale(0.100000,-0.100000)"
fill="#000000" stroke="none">
<path d="M3230 6710 c-14 -5 -88 -18 -165 -30 -255 -39 -479 -106 -693 -206
-41 -19 -80 -34 -87 -34 -7 0 -15 -4 -17 -8 -1 -5 -32 -23 -67 -41 -35 -17
-89 -49 -120 -69 -31 -20 -69 -43 -84 -51 -15 -8 -27 -18 -27 -23 0 -4 -5 -8
-11 -8 -14 0 -138 -92 -229 -168 -69 -59 -273 -263 -328 -328 -18 -21 -46 -55
-62 -74 -16 -19 -32 -43 -36 -52 -3 -10 -9 -18 -13 -18 -10 0 -141 -193 -141
-208 0 -6 -6 -17 -13 -24 -20 -21 -112 -189 -138 -254 -12 -33 -26 -63 -30
-69 -4 -5 -28 -66 -54 -135 -190 -511 -223 -1098 -89 -1620 40 -156 66 -244
73 -255 4 -5 16 -32 25 -60 63 -174 221 -470 323 -605 27 -35 53 -70 58 -79
56 -90 336 -385 443 -466 29 -22 50 -45 48 -52 -3 -7 1 -10 8 -7 7 3 27 -9 45
-25 18 -16 41 -33 52 -36 12 -4 19 -15 19 -31 0 -13 5 -24 10 -24 6 0 10 4 10
10 0 5 6 7 13 4 10 -4 12 -38 9 -156 -4 -138 -6 -153 -26 -173 -11 -11 -29
-24 -39 -28 -9 -3 -17 -13 -17 -22 0 -13 -23 -15 -160 -15 -100 0 -160 -4
-160 -10 0 -5 -22 -10 -50 -10 -27 0 -50 5 -50 10 0 6 -13 10 -30 10 -16 0
-30 -4 -30 -10 0 -5 -11 -10 -24 -10 -14 0 -28 -4 -31 -10 -9 -14 -42 -12 -49
3 -5 9 -7 9 -12 0 -3 -7 -21 -13 -39 -13 -24 0 -38 -6 -45 -20 -8 -14 -21 -20
-45 -20 -19 0 -35 -4 -35 -10 0 -5 -9 -10 -20 -10 -11 0 -20 -4 -20 -10 0 -5
-18 -10 -40 -10 -33 0 -40 -3 -40 -20 0 -12 -7 -20 -18 -20 -9 0 -23 -9 -30
-20 -7 -11 -20 -20 -30 -20 -10 0 -24 -9 -32 -20 -8 -11 -19 -20 -25 -20 -6 0
-16 -9 -23 -20 -7 -11 -19 -20 -27 -20 -8 0 -15 -9 -15 -20 0 -13 -7 -20 -20
-20 -12 0 -20 -7 -20 -16 0 -8 -7 -22 -15 -30 -8 -9 -15 -29 -15 -45 0 -19 5
-29 15 -29 8 0 15 -4 15 -10 0 -5 10 -10 23 -10 13 0 32 -9 44 -19 11 -11 46
-25 77 -32 31 -8 56 -17 56 -20 0 -4 27 -10 60 -14 33 -4 57 -11 54 -16 -9
-15 9 -11 123 26 115 38 144 54 91 49 l-33 -3 28 11 c15 7 27 18 27 25 0 8 7
16 15 19 8 3 17 14 20 25 4 10 13 19 21 19 8 0 17 6 19 13 3 6 22 13 42 14 21
1 39 7 41 12 2 6 13 11 25 11 12 0 31 7 41 15 11 8 29 15 41 15 12 0 25 3 29
7 4 4 30 14 59 23 46 14 67 14 177 3 247 -25 291 -26 360 -8 36 9 83 21 105
26 22 6 72 16 110 24 134 26 159 36 150 64 -3 10 1 24 10 31 8 7 15 20 15 29
0 15 54 71 67 71 8 0 53 53 53 62 0 4 -14 17 -31 29 -23 16 -28 24 -17 30 9 6
9 9 1 9 -7 0 -37 11 -67 25 -30 14 -62 25 -70 25 -9 0 -16 4 -16 8 0 5 -18 14
-40 21 -103 31 -387 187 -535 294 -690 501 -1097 1238 -1144 2070 -27 482 68
948 279 1369 33 65 75 142 94 173 20 30 36 57 36 60 0 2 28 44 61 92 361 519
878 895 1469 1069 563 166 1176 146 1719 -57 135 -51 384 -169 440 -208 16
-12 32 -21 36 -21 3 0 36 -21 73 -46 273 -190 456 -358 640 -589 88 -109 77
-94 136 -185 27 -41 57 -87 67 -101 25 -37 151 -290 184 -369 148 -358 222
-808 196 -1192 -47 -684 -300 -1254 -775 -1748 -72 -74 -291 -266 -338 -295
-8 -5 -61 -41 -117 -78 -122 -82 -260 -157 -418 -227 -167 -74 -184 -82 -179
-87 2 -3 14 0 25 7 14 7 21 7 21 0 0 -5 -5 -10 -12 -10 -6 0 -35 -12 -64 -27
l-53 -27 55 -53 c30 -29 58 -53 62 -53 4 0 26 -17 49 -37 22 -21 49 -43 60
-49 24 -15 30 -62 8 -70 -42 -16 88 -50 139 -36 26 7 74 5 251 -13 89 -9 188
-7 309 5 76 8 112 8 120 0 5 -5 17 -10 26 -10 8 0 31 -10 50 -23 19 -12 53
-29 75 -36 47 -16 55 -25 55 -68 0 -28 4 -33 24 -33 13 0 26 -4 28 -10 2 -5
53 -12 113 -15 61 -3 133 -12 160 -20 28 -7 62 -16 78 -19 21 -5 27 -12 27
-31 0 -17 -6 -25 -17 -25 -39 0 14 -29 107 -58 133 -42 148 -45 130 -33 -20
14 -9 22 42 28 24 3 46 12 50 18 4 7 30 21 58 31 28 10 52 26 56 36 3 10 12
18 20 18 8 0 14 5 14 11 0 15 -40 79 -49 79 -4 0 -13 16 -20 35 -7 19 -17 35
-22 35 -5 0 -9 7 -9 15 0 26 -43 105 -58 105 -18 0 -42 25 -42 44 0 9 -4 16
-10 16 -9 0 -35 19 -65 48 -8 6 -18 12 -24 12 -17 0 -53 22 -81 50 -14 14 -37
31 -52 39 -16 8 -28 18 -28 23 0 4 -22 8 -49 8 -30 0 -52 5 -55 13 -5 9 -7 9
-12 0 -3 -8 -25 -13 -55 -13 -42 0 -49 3 -49 20 0 18 -7 20 -70 20 -63 0 -70
-2 -70 -20 0 -18 -7 -20 -80 -20 -63 0 -84 4 -98 17 -10 10 -28 25 -40 33 -31
20 -32 118 -2 140 12 8 20 26 20 42 0 15 5 28 10 28 6 0 10 12 10 26 0 26 20
54 39 54 6 0 11 5 11 10 0 6 7 10 15 10 11 0 15 12 15 50 0 49 -1 50 -30 50
-16 0 -35 6 -42 13 -15 16 -48 10 -48 -8 0 -8 -10 -17 -22 -20 -39 -11 -78
-30 -78 -36 0 -4 -8 -9 -17 -13 -10 -3 -25 -9 -33 -14 -37 -22 -86 -31 -147
-25 -87 8 -100 42 -23 59 16 3 31 17 39 34 7 16 22 32 34 36 27 8 78 52 252
216 79 74 187 195 262 293 87 113 183 257 183 272 0 7 6 16 14 20 7 4 31 43
52 87 22 43 47 92 56 110 9 17 25 51 35 76 9 25 19 47 22 50 19 17 126 354
150 470 38 189 41 204 51 295 33 300 16 623 -49 910 -25 112 -95 350 -115 390
-8 17 -27 59 -42 95 -32 78 -105 233 -113 240 -6 5 -33 53 -64 112 -6 13 -22
37 -35 53 -39 51 -92 134 -92 145 0 5 -7 10 -15 10 -8 0 -15 6 -15 13 0 7 -15
30 -32 50 -18 20 -49 55 -68 78 -19 22 -60 68 -90 101 -30 34 -54 65 -52 70 1
4 -4 8 -10 8 -7 0 -38 24 -69 53 -107 100 -138 127 -143 127 -3 0 -16 10 -29
23 -34 32 -154 117 -165 117 -6 0 -12 4 -14 9 -3 10 -165 111 -177 111 -4 0
-16 9 -26 20 -10 11 -28 20 -41 20 -13 0 -26 4 -29 10 -6 10 -80 46 -185 90
-30 13 -73 31 -96 42 -22 10 -48 18 -57 18 -10 0 -25 4 -35 10 -49 28 -308 91
-527 128 -101 17 -593 26 -635 12z m1250 -5324 c0 -2 -7 -7 -16 -10 -8 -3 -12
-2 -9 4 6 10 25 14 25 6z m-1869 -21 c19 -8 29 -14 23 -15 -7 0 -27 7 -45 15
-19 8 -29 14 -23 15 7 0 27 -7 45 -15z m3424 -655 c-3 -5 -12 -10 -18 -10 -7
0 -6 4 3 10 19 12 23 12 15 0z"/>
<path d="M3255 6607 c-29 -16 -48 -37 -67 -76 -33 -65 -35 -110 -8 -166 26
-54 64 -75 137 -75 111 0 183 70 183 178 0 67 -20 110 -65 140 -47 30 -125 30
-180 -1z m107 -94 c23 -21 23 -74 0 -103 -14 -18 -25 -22 -45 -16 -24 6 -27
11 -27 53 0 29 6 53 17 65 20 22 31 23 55 1z"/>
<path d="M3586 6619 c-15 -40 -67 -301 -62 -306 3 -3 28 -8 55 -11 48 -4 50
-4 56 24 13 56 17 65 27 62 6 -2 18 -24 27 -48 l17 -45 59 -7 c33 -3 61 -5 62
-4 2 2 -9 30 -23 64 l-27 61 32 36 c50 58 39 131 -27 164 -12 7 -61 15 -107
18 -67 5 -85 3 -89 -8z m128 -92 c27 -20 17 -51 -18 -55 -26 -3 -28 -1 -23 20
4 13 7 29 7 36 0 16 12 15 34 -1z"/>
<path d="M3085 6595 c-5 -2 -43 -9 -82 -15 l-73 -12 0 -165 0 -166 52 7 c28 4
56 10 61 13 4 3 7 26 5 51 -3 40 0 47 17 50 65 10 65 10 65 57 l0 45 -45 -7
c-41 -5 -45 -4 -45 14 0 22 24 33 73 33 26 0 27 2 27 50 0 45 -2 50 -22 49
-13 0 -27 -2 -33 -4z"/>
<path d="M3943 6578 c-13 -16 -104 -291 -98 -297 4 -3 190 -40 210 -41 6 0 18
17 28 37 19 44 15 48 -54 57 -41 6 -49 10 -49 27 0 19 4 20 49 14 49 -7 49 -6
56 24 8 40 1 51 -36 51 -23 0 -29 4 -29 21 0 19 4 20 54 14 l53 -7 12 33 c6
17 11 35 11 39 0 5 -30 13 -67 19 -38 7 -82 14 -99 17 -19 4 -34 1 -41 -8z"/>
<path d="M2721 6513 l-43 -15 6 -44 c3 -24 9 -56 12 -70 6 -25 3 -24 -69 25
l-76 51 -32 -18 c-17 -9 -32 -20 -32 -22 -2 -15 47 -296 52 -302 3 -4 26 -1
51 6 49 15 49 15 37 98 l-7 48 71 -47 70 -46 34 16 c19 9 35 22 35 29 0 7 -12
78 -25 158 -14 80 -25 146 -25 148 0 4 -15 0 -59 -15z"/>
<path d="M4205 6518 c-2 -7 -6 -53 -10 -103 -3 -49 -8 -117 -12 -151 l-5 -61
45 -13 46 -12 128 112 c70 61 129 116 131 120 2 5 -19 20 -46 34 l-50 25 -18
-21 c-35 -38 -118 -103 -112 -87 3 8 9 45 13 81 l7 66 -51 11 c-64 14 -61 14
-66 -1z"/>
<path d="M4568 6352 c-15 -20 -57 -77 -92 -126 -43 -58 -63 -93 -57 -100 5 -6
50 -31 100 -56 l91 -44 32 31 31 32 -56 27 c-54 27 -69 45 -47 59 5 3 23 -1
39 -10 42 -21 54 -19 74 14 l16 28 -34 19 c-64 34 -31 57 35 24 23 -12 43 -20
44 -18 1 2 12 17 25 35 l22 32 -51 26 c-27 14 -66 34 -85 45 -48 27 -56 25
-87 -18z"/>
<path d="M2319 6356 c-85 -30 -139 -101 -139 -182 0 -48 35 -121 71 -147 40
-29 98 -33 151 -9 54 25 112 77 105 95 -2 6 -14 42 -27 80 -12 37 -27 67 -32
67 -5 0 -21 -7 -36 -15 -54 -29 -54 -28 -37 -68 21 -50 19 -57 -14 -57 -34 0
-61 30 -61 67 0 32 34 63 70 63 l30 0 0 60 c0 56 -2 60 -22 60 -13 -1 -39 -7
-59 -14z"/>
<path d="M4742 6150 c-51 -60 -95 -116 -98 -123 -3 -8 11 -24 37 -41 l41 -28
37 36 c21 20 40 34 43 31 3 -3 1 -28 -5 -56 -8 -42 -7 -53 4 -60 8 -5 33 -20
55 -33 l41 -26 7 70 c5 52 11 70 22 70 29 0 74 31 90 61 31 61 1 116 -97 176
-71 44 -75 43 -177 -77z m168 -31 c14 -25 -2 -49 -32 -49 -27 0 -34 27 -13 50
23 25 32 25 45 -1z"/>
<path d="M2053 6199 l-42 -30 18 -47 c20 -48 110 -245 116 -250 1 -2 23 10 48
26 l45 28 -30 70 c-16 38 -45 102 -64 142 -19 41 -34 78 -34 83 0 15 -12 10
-57 -22z"/>
<path d="M3335 6134 c-260 -28 -501 -87 -687 -171 -32 -14 -58 -30 -58 -35 0
-5 -5 -6 -10 -3 -22 14 -286 -144 -424 -252 -106 -84 -313 -295 -392 -403
-257 -346 -398 -720 -434 -1155 -43 -507 116 -1046 430 -1465 127 -170 230
-273 436 -438 25 -19 144 -99 209 -139 131 -82 406 -193 585 -237 197 -48 560
-70 758 -47 611 74 1151 385 1511 870 82 111 134 199 125 212 -4 8 -3 9 5 5
15 -10 137 242 180 373 153 459 158 925 15 1372 -104 326 -276 609 -525 863
l-129 131 -18 -23 c-11 -14 -39 -29 -73 -37 -53 -14 -53 -14 -9 -9 25 3 54 8
65 11 19 5 19 4 -1 -11 -27 -19 -124 -33 -124 -17 0 6 -10 11 -22 11 -19 0
-20 -2 -8 -10 12 -8 9 -9 -10 -6 -14 3 -79 15 -145 27 -108 18 -226 45 -310
69 -16 5 -57 16 -90 25 -70 19 -115 34 -185 63 -94 38 -133 51 -192 63 -56 10
-74 10 -110 -2 -49 -15 -113 -56 -144 -91 -36 -41 -169 -158 -180 -158 -3 0
-32 -18 -64 -40 -32 -22 -80 -52 -107 -67 -81 -47 -133 -87 -128 -101 3 -7 0
-10 -5 -7 -9 5 -38 -14 -155 -105 -10 -8 -49 -44 -85 -80 -99 -96 -224 -210
-254 -230 -15 -9 -47 -38 -72 -63 -24 -25 -61 -55 -82 -67 -20 -12 -46 -33
-56 -48 -18 -25 -17 -25 15 4 34 31 99 68 106 60 9 -8 -49 -56 -60 -50 -7 4
-9 4 -5 -1 4 -4 -6 -18 -21 -31 -26 -22 -48 -70 -37 -81 2 -2 20 11 39 29 41
41 77 58 120 58 25 0 37 7 55 34 13 19 27 47 31 62 4 16 14 29 23 29 8 0 33
20 54 45 71 82 177 180 194 180 5 0 15 8 21 19 8 11 19 16 32 13 10 -3 22 0
26 6 16 26 81 12 81 -19 0 -25 18 -24 39 2 14 17 31 21 111 25 71 4 103 10
132 26 31 18 40 19 53 8 8 -7 15 -24 15 -39 l1 -26 24 28 c23 25 33 28 112 34
49 3 93 9 98 13 10 7 64 11 157 11 37 0 51 4 62 21 18 26 45 32 65 15 11 -9
15 -9 18 1 3 6 20 12 38 12 18 0 35 -6 38 -12 2 -9 22 -12 58 -11 30 2 70 -2
89 -9 25 -8 35 -8 38 1 2 6 12 11 23 11 10 0 19 5 19 10 0 6 11 22 25 36 25
25 24 54 -1 54 -25 0 -15 19 14 26 45 11 49 18 12 25 -19 4 -60 3 -93 -3 -39
-7 -66 -7 -80 -1 -16 7 -37 5 -75 -7 -55 -18 -68 -14 -57 21 7 20 5 20 -31 -5
-47 -32 -60 -33 -68 -3 -3 12 -17 27 -31 34 -25 11 -27 10 -37 -18 -12 -35
-25 -39 -143 -44 -100 -4 -172 -21 -243 -59 -61 -32 -125 -53 -203 -65 -34 -6
-67 -15 -73 -21 -18 -18 -56 -12 -56 10 0 11 6 20 13 20 6 0 22 18 35 40 12
22 29 40 37 40 7 0 35 21 62 46 40 39 73 61 103 69 30 8 49 18 53 29 3 8 28
17 56 21 28 4 53 11 57 16 3 5 14 9 24 9 10 0 20 5 22 10 2 6 14 12 28 15 14
3 30 12 36 20 6 8 16 15 21 15 6 0 13 8 15 18 6 23 82 62 107 55 10 -3 22 0
25 6 4 6 16 11 27 11 10 0 19 5 19 10 0 6 -9 10 -19 10 -11 0 -23 9 -26 20 -4
11 -11 17 -17 14 -7 -4 -8 -2 -4 4 4 7 2 12 -4 12 -7 0 -5 7 4 16 9 8 16 20
16 26 0 7 17 9 45 6 25 -3 45 -2 45 3 0 4 24 -3 53 -16 28 -14 58 -25 65 -25
11 0 16 -20 15 -57 0 -12 71 -21 212 -28 48 -2 137 -18 221 -39 78 -20 152
-36 163 -36 13 0 19 -4 16 -11 -4 -6 2 -13 14 -16 12 -3 21 -9 21 -14 0 -5 6
-9 14 -9 17 0 80 -32 84 -42 6 -13 40 -9 45 5 3 9 9 8 23 -5 21 -18 91 -37
137 -38 16 0 35 -7 44 -15 18 -19 39 -14 35 7 -1 10 7 17 23 21 19 3 25 1 21
-9 -3 -7 0 -11 7 -8 27 10 148 -136 252 -301 47 -75 54 -91 41 -100 -8 -5 -23
-16 -33 -22 -10 -7 -1 -5 19 4 31 14 38 14 50 2 8 -8 16 -18 17 -24 2 -5 7
-20 12 -33 5 -13 9 -28 9 -33 0 -5 5 -9 10 -9 6 0 10 -14 10 -31 0 -17 4 -28
10 -24 5 3 7 0 4 -8 -3 -8 2 -17 10 -20 9 -4 16 -15 16 -25 0 -10 3 -22 7 -25
10 -10 52 -139 53 -159 0 -10 5 -18 11 -18 5 0 7 -5 4 -10 -4 -6 -1 -17 5 -25
7 -8 9 -24 5 -36 -4 -12 -3 -19 1 -16 5 3 10 -11 12 -31 1 -19 7 -41 12 -47 6
-7 13 -35 15 -61 3 -27 9 -98 15 -159 11 -124 10 -505 -2 -505 -4 0 -5 -7 -2
-15 4 -8 1 -22 -6 -30 -6 -8 -11 -29 -9 -47 3 -45 -23 -158 -34 -151 -6 4 -7
-5 -3 -21 4 -17 2 -26 -5 -26 -7 0 -9 -9 -6 -21 4 -14 2 -19 -7 -16 -9 4 -11
-2 -8 -19 2 -13 1 -32 -4 -41 -4 -10 -9 -22 -9 -28 -5 -31 -18 -65 -26 -65 -5
0 -6 -7 -3 -15 4 -8 2 -15 -4 -15 -5 0 -12 -13 -15 -29 -3 -16 -13 -36 -22
-44 -8 -9 -15 -25 -15 -36 0 -12 -4 -21 -10 -21 -5 0 -14 -19 -21 -42 -6 -23
-18 -48 -27 -55 -10 -7 -13 -13 -9 -13 5 0 1 -7 -8 -16 -9 -9 -19 -29 -22 -45
-3 -16 -9 -29 -13 -29 -4 0 -10 -8 -14 -17 -7 -22 -25 -50 -48 -77 -10 -11
-18 -23 -18 -28 0 -4 -7 -8 -15 -8 -8 0 -15 -7 -15 -16 0 -8 -6 -21 -12 -28
-7 -8 -20 -23 -28 -35 -8 -11 -20 -21 -27 -21 -7 0 -13 -8 -13 -18 0 -9 -9
-23 -19 -29 -11 -7 -29 -30 -42 -52 -12 -22 -26 -38 -30 -35 -4 2 -17 -9 -29
-26 -24 -34 -60 -41 -60 -11 0 11 5 21 11 23 8 3 7 8 -2 18 -17 18 -18 106 -2
135 6 11 14 42 18 69 3 27 11 57 16 67 5 11 14 28 19 39 6 11 10 74 10 140 0
73 4 120 10 120 6 0 10 14 10 30 0 17 -4 30 -10 30 -6 0 -10 28 -10 63 0 34
-5 100 -11 147 -6 47 -12 95 -13 108 0 12 -6 22 -13 22 -6 0 -14 13 -18 30 -4
17 -11 30 -16 30 -5 0 -9 18 -9 40 0 22 -4 48 -9 58 -14 26 -38 84 -46 112 -4
14 -16 31 -26 38 -11 7 -19 22 -19 32 0 11 -9 25 -20 32 -11 7 -20 19 -20 26
0 14 -13 32 -42 60 -10 9 -21 31 -24 49 -4 19 -12 33 -20 33 -8 0 -14 7 -14
15 0 17 -53 73 -86 91 -10 6 -23 20 -29 32 -5 12 -18 22 -27 22 -10 0 -18 4
-18 10 0 5 -22 31 -50 58 -27 27 -50 52 -50 56 0 4 -6 14 -14 22 -17 16 -30
133 -24 221 l3 61 -55 6 c-30 4 -65 9 -79 13 -19 5 -23 3 -19 -9 3 -7 0 -25
-8 -39 -7 -13 -13 -34 -14 -46 0 -13 -4 -23 -10 -23 -5 0 -10 -8 -10 -17 0
-10 -9 -29 -20 -43 -11 -14 -20 -29 -20 -35 0 -5 -15 -23 -33 -40 -79 -72
-135 -184 -102 -203 7 -4 17 -23 22 -42 6 -23 16 -36 29 -38 33 -5 62 -24 67
-43 3 -11 18 -20 42 -25 30 -5 36 -10 32 -26 -3 -11 0 -21 9 -25 8 -3 14 -9
14 -15 0 -5 11 -21 25 -36 16 -17 21 -28 13 -31 -6 -2 -24 10 -40 28 -15 17
-28 29 -28 26 0 -3 -6 -1 -12 5 -49 41 -66 53 -96 67 -21 10 -38 28 -44 45 -6
15 -14 28 -19 28 -8 0 -5 -10 22 -60 4 -8 54 -91 111 -184 57 -92 122 -203
145 -245 23 -42 45 -80 50 -86 5 -5 12 -18 16 -27 9 -24 -21 -24 -39 0 -12 16
-13 15 -14 -6 0 -19 -4 -22 -27 -17 -16 2 -29 9 -31 15 -2 6 -15 24 -28 39
-13 16 -24 34 -24 40 0 5 -14 34 -31 63 -17 29 -35 62 -40 73 -5 11 -18 34
-28 50 -10 17 -39 72 -65 123 -26 50 -51 94 -56 97 -5 3 -11 19 -15 35 -5 21
-13 30 -26 30 -22 0 -25 -15 -5 -23 20 -8 9 -42 -17 -56 l-22 -11 23 6 c19 4
22 1 22 -21 0 -15 -7 -33 -15 -41 -19 -20 -19 -34 1 -34 10 0 13 -6 9 -19 -3
-11 1 -24 11 -31 11 -10 15 -27 12 -64 -2 -37 1 -50 10 -48 6 1 13 -1 13 -5
14 -79 23 -270 14 -290 -12 -27 -14 -73 -4 -73 5 0 14 11 18 23 13 33 64 55
156 68 43 6 88 15 102 20 13 5 45 9 69 9 44 0 45 -1 42 -27 -3 -24 2 -30 29
-38 17 -6 40 -18 50 -27 10 -8 28 -19 41 -22 26 -9 30 -24 5 -22 -10 0 -19 -7
-21 -16 -2 -13 3 -18 17 -18 30 0 26 -27 -9 -56 -26 -23 -28 -28 -18 -47 25
-46 -1 -96 -49 -97 -13 0 -23 -4 -23 -8 0 -14 -51 -33 -70 -27 -17 5 -50 -17
-50 -35 0 -13 -44 1 -58 18 -19 24 -40 22 -46 -4 -9 -33 -28 -30 -60 8 -21 25
-35 32 -66 34 -23 1 -52 10 -66 19 -18 12 -29 13 -38 6 -7 -6 -28 -11 -47 -13
-39 -2 -82 -26 -73 -39 7 -12 -139 -155 -166 -164 -11 -4 -20 -12 -20 -19 0
-7 -18 -19 -40 -26 -22 -7 -40 -17 -40 -21 0 -4 -14 -10 -30 -14 -17 -4 -37
-13 -45 -22 -13 -13 -15 -12 -15 6 0 12 -4 21 -10 21 -5 0 -10 -7 -10 -15 0
-8 -2 -15 -5 -15 -11 0 -60 35 -68 47 -4 7 -22 13 -40 13 -59 0 -97 18 -146
69 -41 43 -55 51 -86 51 -26 0 -43 7 -60 26 -22 23 -27 25 -42 13 -12 -10 -17
-11 -20 -2 -4 12 -55 0 -81 -20 -10 -8 -14 -5 -19 11 -7 29 -30 28 -36 0 -3
-17 -5 -14 -6 10 0 18 -6 32 -13 32 -24 -1 -48 -27 -48 -51 0 -24 -20 -65 -20
-42 0 18 -40 3 -41 -16 -4 -78 -15 -87 -22 -16 -3 33 -14 65 -26 81 -25 32
-26 44 -6 44 23 0 14 77 -13 105 -17 18 -21 30 -15 55 l6 33 -36 -7 c-30 -6
-36 -4 -31 8 3 7 1 17 -5 21 -6 3 -11 24 -11 46 0 34 5 42 33 59 17 11 43 20
57 20 14 0 36 8 49 17 24 16 24 16 3 24 -18 7 -20 12 -11 41 5 18 9 34 9 35 0
2 -12 3 -27 3 -24 1 -26 2 -12 13 18 13 31 65 18 69 -13 5 2 78 16 78 7 0 15
10 19 23 3 12 20 30 37 40 l31 17 -24 19 -23 19 30 26 c17 14 38 29 47 32 10
3 21 17 24 31 4 16 19 30 42 40 l34 14 -20 20 c-21 19 -52 17 -52 -4 0 -6 -2
-8 -5 -5 -20 20 48 67 80 54 8 -3 15 -1 15 3 0 5 -8 12 -17 16 -17 6 -16 7 2
18 11 6 24 12 28 12 4 0 11 5 15 10 4 6 19 18 35 28 15 10 27 25 27 35 -1 15
-2 15 -13 1 -7 -8 -40 -30 -74 -47 -34 -17 -72 -40 -85 -51 -13 -10 -41 -34
-63 -53 -35 -29 -87 -83 -163 -167 -12 -14 -22 -31 -22 -38 0 -7 -3 -13 -7
-13 -9 0 -33 -39 -71 -113 -17 -34 -29 -47 -40 -42 -12 4 -13 3 -3 -9 10 -11
9 -21 -4 -45 -8 -17 -16 -34 -16 -38 -1 -30 -23 -92 -31 -87 -6 4 -5 -3 1 -14
6 -12 7 -23 2 -26 -10 -6 -21 -73 -21 -120 1 -25 -2 -27 -15 -16 -12 10 -15
10 -15 -3 0 -9 5 -19 10 -22 13 -8 13 -105 1 -105 -6 0 -12 17 -14 38 -2 20
-3 13 -1 -16 1 -28 -1 -65 -6 -82 -5 -18 -5 -30 2 -32 5 -2 8 -17 6 -33 l-3
-30 -19 35 c-13 23 -15 35 -7 38 14 5 15 82 1 82 -6 0 -10 47 -10 121 0 108 2
120 16 115 14 -5 16 -1 11 28 -4 23 -1 36 7 39 8 3 15 34 18 85 5 62 11 85 26
100 11 11 23 18 26 15 3 -4 6 1 6 10 0 9 9 32 20 52 11 20 20 42 20 50 0 19
21 30 30 15 10 -16 16 -4 25 42 4 20 18 46 31 59 13 12 24 28 24 36 0 7 3 13
8 13 9 0 72 56 72 65 0 10 57 65 69 65 6 0 11 7 11 15 0 8 7 15 15 15 8 0 15
5 15 10 0 6 7 10 15 10 8 0 15 4 15 9 0 5 16 15 35 21 19 6 40 20 45 31 6 10
14 19 19 19 4 0 25 15 45 34 34 33 36 38 36 100 0 41 -5 68 -13 73 -17 11 -67
86 -67 101 0 7 -4 12 -8 12 -13 0 -50 89 -60 145 -13 70 -9 95 21 150 15 26
27 53 27 59 1 12 114 101 143 112 33 12 16 21 -30 16 -62 -7 -83 -23 -130
-100 -36 -59 -43 -65 -128 -106 -49 -24 -97 -46 -105 -50 -8 -3 -1 -3 17 0
l32 5 -6 -53 c-3 -29 -9 -54 -13 -56 -5 -2 -3 -16 3 -33 9 -22 9 -34 -1 -49
-6 -11 -12 -27 -12 -35 0 -8 -4 -15 -10 -15 -5 0 -10 -9 -10 -20 0 -11 -4 -20
-10 -20 -5 0 -10 -7 -10 -15 0 -9 -10 -19 -23 -24 -13 -5 -29 -16 -36 -25 -7
-9 -20 -16 -27 -16 -8 0 -14 -9 -14 -20 0 -13 -7 -20 -20 -20 -11 0 -20 -6
-20 -14 0 -7 -12 -22 -27 -32 -34 -22 -53 -40 -53 -51 -1 -13 -48 -63 -60 -63
-16 0 -60 -47 -60 -65 0 -9 -9 -15 -24 -15 -20 0 -23 -4 -22 -37 1 -34 -2 -38
-26 -41 -16 -2 -28 -9 -28 -16 0 -7 -8 -21 -18 -31 -11 -12 -16 -30 -14 -46 3
-18 -4 -34 -20 -51 -31 -32 -48 -63 -48 -87 0 -30 -11 -51 -26 -51 -10 0 -14
-13 -14 -44 0 -25 -4 -48 -10 -51 -5 -3 -10 -17 -10 -30 0 -13 -4 -27 -10 -30
-5 -3 -10 -17 -10 -30 0 -28 -20 -75 -32 -75 -12 0 -10 -517 2 -525 6 -3 10
-31 10 -61 0 -32 4 -54 11 -54 6 0 9 -17 8 -43 -2 -34 2 -49 19 -67 25 -27 28
-46 10 -54 -10 -5 -10 -7 0 -12 6 -3 12 -19 12 -35 0 -22 5 -29 20 -29 11 0
20 -7 20 -15 0 -8 5 -24 12 -35 10 -15 10 -26 0 -53 -16 -44 -15 -57 3 -57 20
0 19 -39 -1 -47 -21 -8 -59 14 -75 43 -7 13 -18 24 -26 24 -17 0 -53 36 -45
46 4 4 2 5 -4 1 -5 -3 -23 7 -38 24 -15 16 -32 29 -37 29 -4 0 -6 7 -3 15 4 9
0 15 -8 15 -16 0 -68 54 -68 71 0 5 -4 7 -10 4 -5 -3 -10 -2 -10 3 0 4 -16 27
-36 50 -19 23 -32 42 -28 42 4 0 1 6 -8 13 -32 25 -89 110 -83 125 3 9 0 12
-9 9 -9 -4 -20 8 -31 34 -10 21 -22 39 -26 39 -5 0 -6 7 -3 15 4 8 1 15 -5 15
-6 0 -11 6 -11 14 0 7 -6 19 -13 25 -8 6 -19 29 -26 51 -6 22 -17 40 -23 40
-6 0 -8 3 -5 7 4 3 0 14 -9 24 -9 10 -14 25 -11 33 3 8 3 16 -1 18 -17 7 -61
115 -55 136 3 13 1 22 -6 22 -6 0 -14 18 -17 40 -4 22 -10 40 -13 40 -6 0 -11
21 -14 63 -1 9 -4 17 -8 17 -4 0 -9 15 -12 33 -3 17 -10 50 -16 72 -5 22 -12
67 -15 100 -3 33 -5 60 -6 60 -5 0 -12 164 -12 275 -1 154 18 368 33 386 6 7
8 18 5 23 -7 10 27 148 43 179 13 24 56 165 53 175 -1 4 2 7 7 7 5 0 11 14 15
31 3 16 13 37 21 45 8 9 15 28 15 44 0 16 5 30 10 32 6 2 17 21 24 43 8 22 18
38 23 35 4 -3 9 5 11 18 2 12 8 22 13 22 6 0 7 9 4 21 -4 12 -3 19 2 16 5 -3
21 19 37 49 16 30 33 54 38 54 5 0 7 4 4 8 -2 4 13 28 35 52 21 25 39 53 39
62 0 11 5 15 15 12 9 -4 15 0 15 8 0 7 13 28 29 45 16 18 26 34 23 37 -3 3 2
6 10 6 9 0 26 15 39 34 13 19 28 32 33 29 5 -3 7 -2 5 3 -6 12 68 83 77 75 4
-3 5 -1 2 4 -4 6 11 23 33 39 21 17 39 34 39 39 0 4 5 5 10 2 6 -3 10 1 10 9
0 9 5 16 10 16 6 0 21 11 34 25 13 14 28 25 35 25 6 0 20 8 32 18 11 9 33 27
47 39 15 13 33 23 40 23 6 0 12 5 12 11 0 5 5 7 12 3 7 -4 8 -3 4 4 -4 7 -2
13 3 13 6 1 16 2 21 3 6 0 14 6 18 11 9 13 49 35 63 35 6 0 17 6 24 13 33 29
41 33 53 29 6 -2 12 1 12 7 0 6 9 11 19 11 11 0 23 5 26 10 3 6 15 10 26 10
10 0 19 5 19 11 0 6 9 9 20 6 12 -3 18 -1 14 5 -9 14 17 29 39 22 9 -3 17 -1
17 5 0 6 6 11 13 11 6 0 25 7 41 15 15 8 33 12 38 9 6 -4 13 -1 17 5 7 11 114
42 211 61 120 23 329 40 490 39 96 0 186 -1 200 0 14 0 36 -4 50 -9 14 -6 63
-14 110 -20 76 -8 146 -22 190 -38 8 -3 28 -7 43 -9 15 -1 38 -8 50 -15 12 -7
27 -13 32 -14 26 -3 132 -51 140 -63 3 -6 12 -8 20 -4 8 3 15 0 15 -7 0 -7 8
-10 20 -7 11 3 23 0 28 -7 9 -15 74 -46 84 -40 4 3 5 -2 2 -11 -5 -11 -2 -14
10 -9 9 3 16 1 16 -5 0 -6 9 -11 19 -11 20 0 109 -54 123 -74 4 -6 10 -7 14
-3 4 3 28 -11 54 -33 26 -22 52 -40 57 -40 6 0 19 -11 29 -25 10 -14 23 -25
27 -25 13 0 37 -27 30 -34 -4 -3 -1 -6 5 -6 48 0 -15 59 -188 175 -260 174
-558 290 -880 340 -101 16 -412 28 -495 19z m30 -654 c-3 -5 -11 -10 -16 -10
-6 0 -7 5 -4 10 3 6 11 10 16 10 6 0 7 -4 4 -10z m-102 -117 c-7 -2 -19 -2
-25 0 -7 3 -2 5 12 5 14 0 19 -2 13 -5z m-336 -220 c-13 -3 -16 -11 -13 -26 3
-12 3 -16 0 -9 -9 18 -32 15 -46 -8 -7 -11 -18 -20 -24 -20 -6 0 -19 -9 -29
-20 -36 -40 -35 -19 2 25 35 42 74 64 113 63 9 0 8 -2 -3 -5z m-273 -228 c-4
-8 -8 -15 -10 -15 -2 0 -4 7 -4 15 0 8 4 15 10 15 5 0 7 -7 4 -15z m1416
-1055 c8 -5 11 -12 8 -16 -10 -9 -38 3 -38 16 0 12 10 13 30 0z m307 -29 c2
-19 -1 -30 -7 -26 -6 3 -10 13 -10 21 0 8 -4 13 -9 10 -5 -4 -7 3 -4 14 8 31
27 18 30 -19z m54 -23 c33 -38 35 -46 14 -54 -13 -5 -13 -8 0 -21 19 -19 19
-34 0 -27 -14 6 -31 41 -27 57 1 4 -4 6 -10 5 -8 -2 -14 11 -16 35 -2 20 0 37
4 37 3 0 19 -15 35 -32z m67 -107 c-1 -14 8 -44 20 -66 12 -22 22 -45 22 -52
0 -7 5 -13 10 -13 6 0 10 7 10 15 0 8 5 15 10 15 14 0 13 -13 -3 -43 -13 -26
-14 -26 -47 40 -19 36 -40 72 -48 79 -9 10 -10 14 -2 14 8 0 10 9 6 25 -5 19
-3 23 9 19 9 -4 14 -17 13 -33z m82 -191 c0 -5 -4 -10 -10 -10 -5 0 -10 5 -10
10 0 6 5 10 10 10 6 0 10 -4 10 -10z m-362 -22 c-7 -20 -48 -23 -48 -4 0 11 9
16 26 16 16 0 24 -5 22 -12z m52 -3 c0 -8 -4 -15 -9 -15 -13 0 -22 16 -14 24
11 11 23 6 23 -9z m317 -27 c-3 -7 -5 -2 -5 12 0 14 2 19 5 13 2 -7 2 -19 0
-25z m-339 -34 c-4 -3 -16 1 -28 9 -15 11 -18 16 -8 20 15 5 45 -19 36 -29z
m377 -6 c-7 -29 8 -85 21 -78 5 3 8 8 7 13 -2 4 2 7 7 7 13 0 12 -11 -4 -33
-12 -15 -15 -16 -26 -2 -17 21 -26 115 -11 115 7 0 9 -9 6 -22z m-2141 -480
c3 -40 9 -88 12 -105 5 -26 3 -33 -10 -33 -9 0 -16 -8 -16 -20 0 -18 -3 -19
-20 -10 -21 11 -28 64 -10 75 6 3 10 11 10 16 0 6 -4 7 -10 4 -5 -3 -10 -1
-10 4 0 6 7 11 15 11 8 0 17 -14 21 -35 3 -19 10 -35 15 -35 13 0 11 17 -9 85
-17 59 -18 115 -3 115 5 0 11 -33 15 -72z m1806 22 c0 -5 -4 -10 -10 -10 -5 0
-10 5 -10 10 0 6 5 10 10 10 6 0 10 -4 10 -10z m70 -30 c0 -5 -7 -10 -16 -10
-8 0 -12 5 -9 10 3 6 10 10 16 10 5 0 9 -4 9 -10z m-1250 -35 c0 -8 -4 -15
-10 -15 -5 0 -10 7 -10 15 0 8 5 15 10 15 6 0 10 -7 10 -15z m-290 -25 c0 -5
-2 -10 -4 -10 -3 0 -8 5 -11 10 -3 6 -1 10 4 10 6 0 11 -4 11 -10z m-313 -182
c-3 -7 -5 -2 -5 12 0 14 2 19 5 13 2 -7 2 -19 0 -25z m23 -60 c0 -5 -7 -3 -15
6 -8 8 -15 18 -15 22 0 3 7 1 15 -6 8 -7 15 -17 15 -22z m430 -39 c0 -5 6 -9
14 -9 19 0 32 -19 41 -59 5 -25 4 -32 -6 -29 -7 2 -14 17 -16 33 -6 44 -13 44
-13 -1 -1 -33 -2 -36 -11 -21 -6 11 -9 30 -6 43 3 17 -1 28 -14 35 -23 12 -26
31 -4 23 8 -4 15 -10 15 -15z m1483 -99 c-7 -28 -13 -25 -13 6 0 14 4 23 9 20
5 -3 7 -15 4 -26z m-72 -101 c-11 -9 -21 -24 -21 -33 0 -9 -3 -16 -7 -16 -5 0
-33 -24 -65 -53 -75 -69 -97 -87 -107 -87 -5 0 -14 -7 -21 -15 -37 -45 -203
-120 -285 -130 -27 -3 -60 -8 -72 -11 -18 -3 -23 0 -23 16 0 16 7 20 30 20 18
0 58 17 96 40 36 22 72 40 80 40 8 0 14 4 14 9 0 5 12 11 28 14 15 3 39 17 54
31 15 15 39 26 54 26 15 0 36 10 49 24 12 13 32 27 43 31 12 3 22 10 22 15 0
5 13 11 29 15 18 4 39 20 53 41 12 18 28 34 34 34 7 0 15 8 19 18 6 13 8 14
13 3 2 -8 -5 -22 -17 -32z m-277 -294 c-4 -8 -10 -15 -15 -15 -4 0 -6 7 -3 15
4 8 10 15 15 15 4 0 6 -7 3 -15z m-935 -61 c-16 -19 -45 -18 -53 2 -5 13 -1
15 19 10 15 -4 25 -2 25 4 0 6 5 8 10 5 8 -5 7 -11 -1 -21z m921 7 c0 -15
-134 -145 -137 -133 -6 16 -23 15 -23 -2 0 -8 -7 -17 -16 -20 -25 -10 -64 -7
-64 5 0 5 -4 8 -9 5 -5 -3 -11 1 -15 9 -3 8 -1 15 5 15 6 0 6 6 -1 19 -8 16
-5 21 20 30 17 5 30 17 30 25 0 9 6 16 14 16 20 0 41 27 25 32 -7 2 4 4 23 4
28 0 35 -3 31 -15 -5 -13 -3 -13 8 1 8 9 23 18 34 20 26 5 75 -2 75 -11z
m-825 -12 c97 -20 149 -48 138 -75 -3 -8 1 -14 8 -14 11 0 11 -3 -1 -10 -13
-8 -13 -10 1 -10 14 0 36 -29 27 -35 -2 -1 -18 -7 -35 -14 -18 -8 -33 -17 -33
-22 0 -4 -17 -10 -37 -12 -32 -3 -29 -4 17 -7 l55 -3 -50 -7 c-56 -8 -95 4
-95 29 0 9 -10 23 -21 31 -12 8 -27 21 -35 28 -7 6 -20 12 -28 12 -9 0 -16 7
-16 15 0 8 -4 15 -9 15 -18 0 -16 35 2 53 15 15 21 16 34 5 15 -12 16 -10 9
16 -6 25 -5 28 11 21 10 -4 36 -11 58 -16z"/>
<path d="M4410 3796 c0 -9 5 -16 10 -16 6 0 10 4 10 9 0 6 -4 13 -10 16 -5 3
-10 -1 -10 -9z"/>
<path d="M2440 2810 c0 -5 5 -10 10 -10 6 0 10 5 10 10 0 6 -4 10 -10 10 -5 0
-10 -4 -10 -10z"/>
<path d="M1867 6069 c-42 -34 -77 -67 -77 -73 0 -9 143 -261 156 -275 4 -4 83
55 143 106 33 28 33 30 22 66 -7 20 -16 37 -20 37 -5 0 -28 -16 -52 -35 -50
-40 -55 -41 -63 -18 -5 11 4 25 26 43 30 26 31 28 19 58 -16 38 -20 38 -54 12
-14 -11 -30 -20 -35 -20 -11 0 -25 30 -14 30 4 0 22 14 39 30 l33 30 -17 35
c-9 19 -19 35 -22 35 -4 0 -41 -28 -84 -61z"/>
<path d="M5157 5936 c-47 -17 -64 -31 -93 -78 -46 -72 -23 -160 55 -209 25
-16 51 -29 57 -29 7 0 27 20 44 45 21 31 27 45 17 45 -25 0 -67 41 -67 64 0
60 79 74 115 21 l20 -31 50 15 c28 8 51 16 53 17 1 0 -2 14 -8 30 -24 63 -110
124 -175 123 -16 0 -47 -6 -68 -13z"/>
<path d="M1638 5866 c-44 -30 -117 -107 -118 -124 0 -12 69 -104 166 -223 l31
-38 39 40 c28 29 36 43 29 53 -58 79 -57 86 10 60 l46 -17 44 43 c25 24 42 46
39 49 -3 3 -31 13 -62 21 -56 15 -57 16 -64 59 -8 49 -20 66 -59 87 -39 20
-61 18 -101 -10z m56 -92 c19 -7 21 -47 3 -63 -10 -8 -19 -4 -35 19 -21 27
-21 30 -4 39 21 13 17 12 36 5z"/>
<path d="M5311 5684 l-132 -87 37 -38 c21 -22 42 -39 47 -39 4 0 28 13 51 30
l43 29 28 -29 27 -28 -50 -34 -50 -33 37 -44 37 -43 136 89 c76 48 137 90 137
93 0 3 -16 23 -35 45 -32 36 -36 38 -57 25 -75 -47 -74 -47 -101 -21 -14 14
-26 27 -26 31 0 3 13 14 30 23 16 10 36 25 45 34 15 14 14 19 -16 49 -18 19
-38 34 -44 34 -6 0 -71 -39 -144 -86z"/>
<path d="M3798 5703 c7 -3 16 -2 19 1 4 3 -2 6 -13 5 -11 0 -14 -3 -6 -6z"/>
<path d="M1346 5533 c-38 -53 -71 -103 -73 -112 -2 -9 9 -29 26 -45 l30 -29
26 32 c26 30 27 30 43 13 10 -10 47 -46 83 -80 l66 -62 33 47 34 47 -82 75
c-45 42 -82 81 -82 86 0 6 9 21 20 35 l19 25 -31 33 c-18 17 -34 32 -37 32 -4
0 -37 -44 -75 -97z"/>
<path d="M5590 5434 c-52 -25 -105 -55 -117 -66 -47 -44 -17 -159 55 -215 54
-41 95 -37 222 21 58 26 107 50 109 51 3 3 -12 30 -48 84 -7 11 -28 4 -109
-33 -56 -25 -108 -46 -116 -46 -18 0 -38 33 -31 52 5 13 176 98 197 98 11 0
11 2 -22 57 -14 24 -29 43 -35 42 -5 0 -53 -21 -105 -45z"/>
<path d="M1213 5328 c-81 -89 -84 -181 -7 -223 33 -18 37 -18 82 -2 26 10 50
17 55 17 18 0 4 -30 -25 -55 l-31 -26 36 -37 37 -36 36 34 c37 36 84 120 84
153 0 34 -31 79 -65 93 -31 13 -40 12 -87 -6 -67 -25 -83 -12 -38 30 l34 31
-30 24 c-37 30 -55 31 -81 3z"/>
<path d="M5726 5109 c-77 -22 -141 -41 -143 -42 -1 -2 7 -26 19 -54 l21 -50
48 12 c59 16 65 4 19 -40 -35 -34 -36 -44 -6 -109 l22 -50 43 56 44 55 38 -15
c34 -13 41 -13 76 4 48 24 65 57 59 111 -8 59 -61 163 -84 162 -9 -1 -80 -19
-156 -40z m142 -111 c-4 -31 -52 -38 -67 -9 -12 22 -3 29 42 30 24 1 28 -3 25
-21z"/>
<path d="M1073 5063 l-22 -48 134 -87 c74 -49 136 -88 140 -88 3 0 15 21 26
47 l20 48 -27 22 c-38 30 -232 153 -241 153 -4 0 -18 -21 -30 -47z"/>
<path d="M5294 4944 c-18 -14 -18 -15 4 -4 12 6 22 13 22 15 0 8 -5 6 -26 -11z"/>
<path d="M5214 4894 c-18 -14 -18 -15 4 -4 12 6 22 13 22 15 0 8 -5 6 -26 -11z"/>
<path d="M1024 4881 c-32 -20 -66 -84 -82 -159 -9 -40 -9 -42 23 -62 18 -11
35 -20 38 -20 3 0 47 -22 97 -50 127 -68 124 -68 139 -19 7 23 15 47 17 53 3
7 -12 20 -36 31 -57 26 -53 45 10 45 48 0 50 1 66 38 8 20 18 49 21 63 5 27 5
27 -38 18 -79 -15 -93 -12 -108 22 -13 31 -61 59 -98 59 -10 0 -32 -9 -49 -19z
m74 -103 c11 -11 17 -58 7 -58 -15 0 -55 25 -55 35 0 12 20 35 30 35 3 0 11
-5 18 -12z"/>
<path d="M5164 4864 c-18 -14 -18 -15 4 -4 12 6 22 13 22 15 0 8 -5 6 -26 -11z"/>
<path d="M5084 4814 c-18 -14 -18 -15 4 -4 12 6 22 13 22 15 0 8 -5 6 -26 -11z"/>
<path d="M5825 4806 c-78 -35 -106 -121 -67 -210 25 -54 39 -62 86 -46 45 15
51 24 32 52 -33 47 -10 98 44 98 35 0 60 -32 60 -76 0 -27 4 -32 29 -37 16 -3
40 -9 54 -12 21 -6 25 -3 30 22 16 82 -47 192 -121 213 -50 14 -111 12 -147
-4z"/>
<path d="M4990 4749 l-35 -30 38 26 c33 24 43 35 34 35 -1 0 -18 -14 -37 -31z"/>
<path d="M4897 4686 c-59 -41 -73 -55 -29 -30 33 19 91 63 82 63 -3 0 -27 -15
-53 -33z"/>
<path d="M2315 4647 c-35 -58 -46 -77 -42 -77 2 0 21 25 41 55 20 30 33 55 29
55 -5 0 -17 -15 -28 -33z"/>
<path d="M2646 4596 c-15 -13 -26 -27 -26 -32 0 -4 12 4 28 18 15 14 34 28 42
31 12 4 12 6 -2 6 -9 1 -28 -10 -42 -23z"/>
<path d="M4720 4595 c-19 -7 -28 -14 -20 -14 8 0 29 6 45 14 39 17 21 18 -25
0z"/>
<path d="M900 4583 c0 -10 -3 -35 -6 -55 l-6 -37 55 -16 56 -16 -6 -37 c-3
-20 -7 -38 -8 -40 -1 -1 -24 5 -51 13 -27 8 -52 15 -56 15 -8 0 -22 -99 -15
-106 8 -8 300 -104 304 -100 2 2 7 28 10 58 l5 54 -53 15 -54 14 3 40 c2 22 5
41 6 42 1 2 27 -6 57 -16 61 -22 63 -21 73 49 l6 45 -153 48 c-83 26 -155 48
-159 48 -5 -1 -8 -9 -8 -18z"/>
<path d="M4638 4573 c6 -2 18 -2 25 0 6 3 1 5 -13 5 -14 0 -19 -2 -12 -5z"/>
<path d="M2284 4541 c7 -11 46 -35 46 -28 0 3 -12 12 -26 22 -15 9 -23 12 -20
6z"/>
<path d="M2530 4530 l-25 -8 25 -1 c14 0 32 4 40 9 13 9 13 10 0 9 -8 -1 -26
-5 -40 -9z"/>
<path d="M5887 4523 l-98 -4 7 -47 c3 -26 8 -50 11 -54 2 -5 31 -8 63 -8 57 0
60 -1 66 -27 3 -16 7 -33 9 -40 3 -8 -15 -13 -59 -15 l-62 -3 10 -54 11 -53
155 1 c85 1 159 6 164 11 5 5 5 29 0 57 l-9 48 -62 3 -61 3 -4 34 c-4 34 -3
35 32 35 55 0 81 10 76 29 -2 9 -7 33 -11 54 l-6 37 -67 -2 c-37 -1 -111 -4
-165 -5z"/>
<path d="M2458 4513 c6 -2 18 -2 25 0 6 3 1 5 -13 5 -14 0 -19 -2 -12 -5z"/>
<path d="M2363 4503 c15 -2 37 -2 50 0 12 2 0 4 -28 4 -27 0 -38 -2 -22 -4z"/>
<path d="M845 4196 c-37 -88 -7 -186 72 -237 78 -48 181 -36 227 28 24 33 32
118 16 167 -11 35 -12 36 -53 30 -66 -9 -69 -11 -57 -33 14 -26 13 -64 -2 -79
-17 -17 -73 -15 -88 3 -8 9 -11 32 -8 58 5 42 4 44 -36 68 -23 13 -44 26 -49
27 -4 2 -14 -12 -22 -32z"/>
<path d="M4010 4171 c0 -6 4 -13 10 -16 6 -3 7 1 4 9 -7 18 -14 21 -14 7z"/>
<path d="M3300 4120 c-8 -5 -10 -10 -5 -10 6 0 17 5 25 10 8 5 11 10 5 10 -5
0 -17 -5 -25 -10z"/>
<path d="M4055 4109 c12 -38 27 -48 22 -15 -2 17 -9 32 -16 34 -10 3 -11 -2
-6 -19z"/>
<path d="M3230 4100 c0 -5 6 -10 14 -10 8 0 18 5 21 10 3 6 -3 10 -14 10 -12
0 -21 -4 -21 -10z"/>
<path d="M2462 3290 c0 -19 2 -27 5 -17 2 9 2 25 0 35 -3 9 -5 1 -5 -18z"/>
<path d="M2430 3210 c0 -5 5 -10 10 -10 6 0 10 5 10 10 0 6 -4 10 -10 10 -5 0
-10 -4 -10 -10z"/>
<path d="M2431 3144 c0 -11 3 -14 6 -6 3 7 2 16 -1 19 -3 4 -6 -2 -5 -13z"/>
<path d="M1250 2989 c-113 -47 -170 -187 -121 -294 36 -77 124 -135 205 -135
45 0 126 41 163 83 59 67 68 154 26 238 -40 78 -94 113 -181 116 -37 2 -78 -2
-92 -8z m157 -96 c54 -36 72 -137 32 -187 -79 -101 -239 -54 -239 71 0 69 35
120 95 136 29 8 85 -2 112 -20z"/>
<path d="M5565 2981 c-117 -53 -163 -186 -105 -301 37 -73 107 -114 195 -114
75 -1 136 31 179 92 41 58 49 158 17 219 -53 105 -181 152 -286 104z m161 -86
c56 -36 77 -110 49 -169 -64 -135 -269 -77 -252 71 11 98 122 151 203 98z"/>
<path d="M4967 2236 l-39 -33 19 -33 c39 -70 45 -82 40 -86 -3 -3 -42 4 -88
16 l-82 21 -30 -30 c-29 -29 -30 -30 -14 -55 25 -38 21 -51 -9 -31 -20 13 -41
16 -81 13 -68 -6 -127 -46 -161 -108 -52 -97 -4 -228 100 -271 37 -15 99 -2
153 33 46 30 85 103 85 159 l0 44 25 -37 c14 -20 25 -41 25 -45 0 -4 4 -14 9
-22 7 -11 18 -6 54 23 l45 37 -33 60 c-19 33 -29 59 -22 59 7 0 48 -9 92 -20
l79 -19 27 32 27 32 -33 60 c-18 33 -49 87 -69 120 -20 33 -41 72 -47 88 -14
35 -26 34 -72 -7z m-258 -357 c41 -45 38 -112 -5 -123 -30 -8 -49 5 -70 45
-18 36 -18 58 3 81 21 24 48 23 72 -3z"/>
<path d="M1980 2148 c-51 -26 -96 -86 -105 -139 -19 -111 119 -218 241 -188
28 7 63 26 86 47 21 19 38 30 38 24 0 -6 -4 -12 -8 -14 -16 -7 -103 -121 -99
-131 6 -18 99 -63 104 -50 2 6 16 24 29 39 l26 27 44 -21 c24 -12 44 -18 44
-14 0 4 12 20 27 36 22 24 24 30 11 37 -8 4 -26 17 -39 28 -22 18 -23 21 -8
36 15 16 20 15 59 -11 l43 -28 28 34 c16 19 29 39 29 45 -1 5 -42 33 -93 62
l-92 52 -53 -57 c-43 -47 -50 -51 -37 -25 20 43 19 86 -5 133 -45 89 -176 126
-270 78z m144 -104 c20 -20 20 -29 -1 -64 -21 -37 -55 -54 -87 -46 -35 9 -35
54 0 95 29 34 63 40 88 15z"/>
<path d="M4390 1881 c-24 -10 -46 -23 -48 -29 -2 -6 13 -75 32 -152 20 -78 36
-150 36 -160 0 -11 4 -20 9 -20 13 0 100 40 104 48 7 12 -69 326 -79 328 -5 2
-29 -5 -54 -15z"/>
<path d="M2640 1793 c-70 -58 -149 -125 -164 -138 -6 -6 -26 -22 -44 -37 -36
-30 -35 -30 31 -53 42 -14 49 -14 70 -1 21 14 28 14 72 -3 40 -15 51 -24 55
-46 4 -22 15 -31 54 -46 27 -10 53 -16 58 -13 5 3 8 22 8 42 -1 20 6 89 14
152 21 158 23 148 -30 170 -25 11 -51 20 -57 19 -7 0 -37 -21 -67 -46z m36
-148 c-5 -26 -12 -35 -27 -35 -32 0 -34 27 -2 54 15 13 30 23 32 21 2 -2 0
-20 -3 -40z"/>
<path d="M4181 1805 c-62 -18 -117 -37 -122 -42 -4 -4 -5 -27 -2 -51 l6 -43
42 6 42 7 13 -122 c11 -104 15 -120 29 -114 35 14 71 22 71 16 0 -3 5 -1 12 6
16 16 17 43 3 152 -7 52 -11 98 -9 101 2 4 20 10 39 13 37 7 41 16 29 75 -8
38 -9 38 -153 -4z"/>
<path d="M2902 1746 c-24 -70 -43 -122 -52 -141 -25 -51 -59 -155 -52 -158 11
-7 153 -30 191 -31 28 -1 36 4 52 34 l19 35 -60 18 c-33 10 -59 21 -57 25 29
51 86 203 81 216 -3 7 -29 17 -58 23 l-54 9 -10 -30z"/>
<path d="M3932 1743 c-13 -3 -28 -16 -34 -31 -5 -15 -14 -34 -18 -43 -4 -8
-18 -51 -30 -94 -12 -44 -25 -86 -27 -95 -4 -9 0 -7 10 5 8 11 13 23 11 27 -3
5 0 8 5 8 6 0 11 -8 12 -17 0 -12 2 -13 6 -5 4 10 8 9 19 -5 13 -17 13 -17 14
4 0 12 4 24 9 27 5 4 7 -2 5 -12 -3 -9 -1 -28 5 -42 7 -19 10 -20 10 -7 1 10
6 15 11 12 6 -3 10 0 10 7 0 10 2 10 9 -1 5 -8 14 -10 22 -6 9 6 11 3 6 -8 -7
-19 8 -23 19 -6 5 8 10 6 16 -5 5 -9 17 -16 26 -17 14 0 13 -2 -3 -9 -15 -7
-9 -9 25 -9 33 -1 41 2 30 9 -19 13 -8 13 24 0 23 -8 26 -7 26 10 0 11 -4 28
-9 38 -23 42 -109 229 -115 250 -7 22 -33 27 -94 15z m46 -180 c19 -47 18 -57
-4 -59 -12 0 -26 -4 -32 -8 -6 -3 -13 -2 -16 3 -4 5 -2 12 3 15 5 3 12 22 15
41 8 42 20 45 34 8z"/>
<path d="M3160 1698 c-18 -43 -80 -301 -74 -307 4 -3 9 0 11 7 3 6 12 12 21
12 15 0 15 2 2 10 -12 8 -9 10 13 10 15 0 27 4 27 8 0 4 12 9 27 10 33 3 42
10 24 21 -9 6 -10 11 -3 15 10 6 50 126 66 197 5 24 3 27 -32 33 -60 10 -72 7
-82 -16z"/>
<path d="M3495 1701 c-29 -6 -30 -8 -42 -96 -7 -50 -15 -127 -18 -172 l-6 -83
55 0 54 0 7 72 8 73 62 -68 c34 -37 65 -67 68 -67 4 0 7 9 7 21 0 11 4 18 9
15 5 -3 15 9 22 27 7 17 19 35 26 40 6 4 15 24 18 45 4 20 10 48 15 62 5 14
11 51 15 83 l6 57 -56 0 c-62 0 -60 3 -72 -89 l-8 -64 -60 76 c-33 43 -64 76
-70 76 -5 -1 -23 -4 -40 -8z"/>
<path d="M3208 1423 c7 -3 16 -2 19 1 4 3 -2 6 -13 5 -11 0 -14 -3 -6 -6z"/>
<path d="M3128 1383 c7 -3 16 -2 19 1 4 3 -2 6 -13 5 -11 0 -14 -3 -6 -6z"/>
<path d="M3490 1230 c-12 -8 -12 -10 -1 -10 10 0 11 -3 2 -14 -9 -10 -8 -29 4
-77 8 -35 15 -83 15 -106 0 -71 15 -56 28 28 7 44 18 91 24 105 9 19 9 30 0
45 -10 15 -10 19 0 19 9 0 8 3 -2 10 -8 5 -24 10 -35 10 -11 0 -27 -5 -35 -10z"/>
<path d="M2559 920 c-47 -10 -113 -26 -145 -35 -32 -9 -77 -21 -99 -26 -22 -6
-42 -14 -45 -18 -3 -4 -31 -13 -63 -19 -32 -6 -72 -18 -90 -26 -18 -7 -63 -23
-100 -35 -38 -12 -81 -28 -97 -36 -15 -8 -30 -12 -33 -8 -4 3 -21 -1 -39 -10
-18 -8 -42 -18 -53 -21 -27 -7 43 1 75 9 14 4 43 10 65 15 22 4 85 19 140 34
103 28 307 81 429 111 37 10 78 19 90 20 31 4 33 6 11 15 -14 6 -3 9 40 9 40
1 55 4 46 10 -11 7 -4 11 25 16 64 11 63 13 -6 13 -36 0 -104 -8 -151 -18z"/>
<path d="M4288 933 c7 -3 16 -2 19 1 4 3 -2 6 -13 5 -11 0 -14 -3 -6 -6z"/>
<path d="M4347 923 c-3 -5 13 -9 36 -10 43 -3 77 -22 42 -24 -32 -2 44 -20
115 -28 36 -5 54 -9 40 -10 -23 -2 -24 -3 -5 -11 28 -12 47 -12 40 0 -3 6 4
10 16 10 18 0 19 -2 9 -15 -10 -12 -10 -15 2 -15 8 0 19 5 24 10 7 7 19 8 37
1 37 -14 34 -24 -5 -16 -18 4 -31 5 -28 2 5 -5 159 -49 240 -67 19 -5 98 -25
175 -44 77 -20 147 -35 155 -35 24 2 -62 27 -95 28 -24 1 -27 3 -15 12 12 8 9
10 -12 6 -15 -2 -25 -1 -23 4 3 4 -9 10 -27 14 -37 7 -78 20 -123 40 -16 7
-88 30 -160 50 -71 20 -140 41 -151 45 -42 16 -243 60 -275 60 -4 0 -10 -3
-12 -7z m193 -43 c0 -13 -40 -13 -60 0 -11 7 -5 10 23 10 20 0 37 -4 37 -10z"/>
<path d="M2358 913 c7 -3 16 -2 19 1 4 3 -2 6 -13 5 -11 0 -14 -3 -6 -6z"/>
<path d="M2268 893 c6 -2 18 -2 25 0 6 3 1 5 -13 5 -14 0 -19 -2 -12 -5z"/>
<path d="M2785 879 c-148 -20 -463 -90 -675 -149 -41 -11 -117 -32 -169 -46
-52 -13 -97 -27 -100 -31 -3 -3 5 -3 19 1 33 9 308 67 340 71 14 2 41 9 60 15
19 5 48 10 63 10 19 0 26 4 21 12 -4 7 -3 8 4 4 11 -6 128 12 222 35 25 6 90
18 145 26 55 7 125 18 155 23 30 5 93 12 140 16 55 5 78 10 65 15 -26 10 -213
9 -290 -2z"/>
<path d="M3953 883 c4 -6 35 -13 69 -17 35 -3 79 -9 98 -12 19 -3 54 -6 77 -7
23 -2 45 -6 49 -10 4 -4 29 -7 56 -7 26 0 48 -4 48 -9 0 -10 67 -21 137 -24
23 -1 38 -4 33 -7 -5 -3 46 -16 113 -29 67 -13 189 -39 271 -57 300 -68 199
-30 -184 69 -176 46 -263 65 -447 97 -87 15 -327 25 -320 13z"/>
<path d="M2665 790 c-163 -25 -423 -74 -575 -110 -69 -16 -138 -31 -155 -33
l-30 -4 30 -1 c17 -1 75 5 130 14 55 8 114 16 130 18 63 8 163 26 230 41 39 9
81 17 95 19 29 4 300 65 315 71 24 9 -60 2 -170 -15z"/>
<path d="M4360 765 c63 -14 126 -29 140 -35 27 -10 184 -40 240 -46 19 -2 76
-10 125 -19 118 -19 187 -19 95 1 -36 7 -105 23 -155 34 -186 43 -403 81 -480
86 l-80 4 115 -25z"/>
<path d="M3365 768 c47 -27 93 -90 127 -175 7 -18 15 -33 18 -33 3 0 14 25 24
54 21 62 64 119 110 147 22 13 26 19 13 19 -27 0 -100 -73 -126 -126 l-24 -47
-19 44 c-23 51 -61 95 -100 115 -32 17 -52 18 -23 2z"/>
<path d="M938 663 c7 -3 16 -2 19 1 4 3 -2 6 -13 5 -11 0 -14 -3 -6 -6z"/>
<path d="M619 515 c-54 -52 -107 -95 -116 -95 -10 0 -25 -5 -33 -10 -10 -6 -2
-7 25 -3 33 5 55 21 130 96 49 49 99 93 110 98 18 7 18 8 2 8 -10 1 -63 -42
-118 -94z"/>
<path d="M6278 590 c25 -11 77 -54 121 -99 50 -51 89 -82 107 -86 l29 -6 -30
14 c-16 8 -61 47 -100 87 -66 67 -127 110 -157 110 -7 0 7 -9 30 -20z"/>
<path d="M2815 485 c-44 -9 -93 -20 -110 -25 -215 -67 -390 -89 -820 -99 -284
-8 -206 -9 475 -7 448 0 822 -1 830 -4 11 -4 14 2 13 20 -4 33 -71 93 -121
108 -66 20 -181 23 -267 7z"/>
<path d="M3975 486 c-100 -23 -165 -75 -165 -131 0 -14 8 -15 58 -8 63 9 80 9
1187 1 594 -5 672 -4 327 2 -648 12 -747 21 -1043 98 -183 47 -279 57 -364 38z"/>
<path d="M316 362 c-60 -20 -105 -37 -100 -39 5 -2 61 15 124 36 63 22 108 40
100 40 -8 0 -64 -16 -124 -37z"/>
<path d="M6548 393 c7 -3 16 -2 19 1 4 3 -2 6 -13 5 -11 0 -14 -3 -6 -6z"/>
<path d="M3479 363 c-13 -17 -13 -17 6 -3 11 8 22 16 24 17 2 2 0 3 -6 3 -6 0
-17 -8 -24 -17z"/>
<path d="M6615 370 c27 -12 43 -12 25 0 -8 5 -22 9 -30 9 -10 0 -8 -3 5 -9z"/>
<path d="M3520 366 c0 -2 8 -10 18 -17 15 -13 16 -12 3 4 -13 16 -21 21 -21
13z"/>
<path d="M6704 339 c27 -11 54 -18 60 -16 11 4 -79 37 -98 36 -6 0 11 -9 38
-20z"/>
<path d="M3430 298 c-19 -24 -26 -37 -17 -29 19 15 61 71 54 71 -2 0 -19 -19
-37 -42z"/>
<path d="M3550 326 c0 -2 8 -10 18 -17 15 -13 16 -12 3 4 -13 16 -21 21 -21
13z"/>
<path d="M172 311 c-8 -5 -12 -16 -10 -25 2 -12 6 -10 15 9 6 14 10 25 10 25
-1 0 -8 -4 -15 -9z"/>
<path d="M6786 311 c5 -5 18 -11 29 -13 13 -2 20 -11 19 -26 0 -12 3 -22 8
-22 4 0 8 11 8 23 0 16 -9 28 -25 35 -31 14 -53 16 -39 3z"/>
<path d="M3592 274 c10 -10 20 -16 22 -13 3 3 -5 11 -17 18 -21 13 -21 12 -5
-5z"/>
</g>
</svg>
